<svg xmlns="http://www.w3.org/2000/svg" viewBox="0 0 1200 360" width="1200" height="360" role="img"><defs><linearGradient id="bg" x1="0" y1="0" x2="1" y2="1"><stop offset="0" stop-color="#0d0d10"/><stop offset="1" stop-color="#e01327"/></linearGradient><radialGradient id="gl" cx="0.5" cy="0.35" r="0.75"><stop offset="0" stop-color="#ff5065" stop-opacity="0.35"/><stop offset="1" stop-color="#ff5065" stop-opacity="0"/></radialGradient></defs><rect width="1200" height="360" fill="url(#bg)"/><rect width="1200" height="360" fill="url(#gl)"/><circle cx="1008" cy="40" r="110" fill="#ff5065" opacity="0.086"/><circle cx="380" cy="11" r="94" fill="#ff5065" opacity="0.048"/><circle cx="70" cy="122" r="116" fill="#ff5065" opacity="0.087"/><circle cx="763" cy="94" r="102" fill="#ff5065" opacity="0.092"/><circle cx="-31" cy="167" r="157" fill="#ff5065" opacity="0.051"/><circle cx="896" cy="-19" r="141" fill="#ff5065" opacity="0.083"/><circle cx="1145" cy="-27" r="51" fill="#ff5065" opacity="0.096"/><line x1="0" y1="228" x2="1200" y2="225" stroke="#ff5065" stroke-width="1" opacity="0.05"/><line x1="0" y1="330" x2="1200" y2="321" stroke="#ff5065" stroke-width="1" opacity="0.05"/><line x1="0" y1="84" x2="1200" y2="95" stroke="#ff5065" stroke-width="1" opacity="0.05"/><rect y="50" width="1200" height="260" fill="#000000" opacity="0.20"/><text x="600" y="148" text-anchor="middle" font-family="&#39;Segoe UI&#39;,&#39;Arial&#39;,sans-serif" font-size="78" font-weight="700" fill="#ffffff" textLength="889.2" lengthAdjust="spacingAndGlyphs">Glary Utilities Pro</text><text x="600" y="230.7" text-anchor="middle" font-family="&#39;Segoe UI&#39;,&#39;Arial&#39;,sans-serif" font-size="78" font-weight="700" fill="#ffffff" textLength="982.8" lengthAdjust="spacingAndGlyphs">Full Version Download</text><rect x="530" y="252.7" width="140" height="4" rx="2" fill="#ff5065"/><text x="600" y="290.7" text-anchor="middle" font-family="&#39;Segoe UI&#39;,&#39;Arial&#39;,sans-serif" font-size="28.4" font-weight="400" fill="#ffffff" fill-opacity="0.85" textLength="1050.0" lengthAdjust="spacingAndGlyphs">Download Glary Utilities Pro full version with lifetime license for PC…</text></svg>